<svg width="30" height="30" viewBox="0 0 30 30" fill="none" xmlns="http://www.w3.org/2000/svg">
<circle cx="15" cy="15" r="15" fill="black"/>
<path d="M15 9.33333C13.8792 9.33333 12.7836 9.66568 11.8518 10.2883C10.9199 10.911 10.1936 11.796 9.76468 12.8315C9.33579 13.8669 9.22357 15.0063 9.44222 16.1055C9.66087 17.2047 10.2006 18.2144 10.9931 19.0069C11.7856 19.7994 12.7953 20.3391 13.8945 20.5578C14.9937 20.7764 16.1331 20.6642 17.1685 20.2353C18.204 19.8064 19.089 19.0801 19.7117 18.1482C20.3343 17.2164 20.6667 16.1208 20.6667 15C20.6645 13.4978 20.0667 12.0577 19.0045 10.9955C17.9423 9.93327 16.5022 9.33554 15 9.33333V9.33333ZM15 19.3333C14.1429 19.3333 13.3051 19.0792 12.5925 18.603C11.8799 18.1269 11.3245 17.4501 10.9965 16.6583C10.6685 15.8665 10.5827 14.9952 10.7499 14.1546C10.9171 13.314 11.3298 12.5419 11.9359 11.9359C12.5419 11.3298 13.314 10.9171 14.1546 10.7499C14.9952 10.5827 15.8665 10.6685 16.6583 10.9965C17.4501 11.3245 18.1269 11.8799 18.603 12.5925C19.0792 13.3051 19.3333 14.1429 19.3333 15C19.3333 16.1493 18.8768 17.2515 18.0641 18.0641C17.2515 18.8768 16.1493 19.3333 15 19.3333V19.3333ZM14.3333 7.33333V5.66667C14.3333 5.48986 14.4036 5.32029 14.5286 5.19526C14.6536 5.07024 14.8232 5 15 5C15.1768 5 15.3464 5.07024 15.4714 5.19526C15.5964 5.32029 15.6667 5.48986 15.6667 5.66667V7.33333C15.6667 7.51014 15.5964 7.67971 15.4714 7.80474C15.3464 7.92976 15.1768 8 15 8C14.8232 8 14.6536 7.92976 14.5286 7.80474C14.4036 7.67971 14.3333 7.51014 14.3333 7.33333ZM7.925 8.875C7.85217 8.81523 7.79266 8.74087 7.7503 8.65671C7.70794 8.57254 7.68366 8.48045 7.67904 8.38634C7.67442 8.29223 7.68955 8.1982 7.72346 8.1103C7.75737 8.02239 7.80931 7.94256 7.87593 7.87593C7.94256 7.80931 8.02239 7.75737 8.1103 7.72346C8.1982 7.68955 8.29223 7.67442 8.38634 7.67904C8.48045 7.68366 8.57254 7.70794 8.65671 7.7503C8.74087 7.79266 8.81523 7.85217 8.875 7.925L10.05 9.10833C10.1747 9.23331 10.2447 9.40264 10.2447 9.57917C10.2447 9.7557 10.1747 9.92502 10.05 10.05C9.92397 10.1727 9.75504 10.2413 9.57917 10.2413C9.40329 10.2413 9.23436 10.1727 9.10833 10.05L7.925 8.875ZM7.33333 15.6667H5.66667C5.48986 15.6667 5.32029 15.5964 5.19526 15.4714C5.07024 15.3464 5 15.1768 5 15C5 14.8232 5.07024 14.6536 5.19526 14.5286C5.32029 14.4036 5.48986 14.3333 5.66667 14.3333H7.33333C7.51014 14.3333 7.67971 14.4036 7.80474 14.5286C7.92976 14.6536 8 14.8232 8 15C8 15.1768 7.92976 15.3464 7.80474 15.4714C7.67971 15.5964 7.51014 15.6667 7.33333 15.6667ZM10.05 19.95C10.1747 20.075 10.2447 20.2443 10.2447 20.4208C10.2447 20.5974 10.1747 20.7667 10.05 20.8917L8.875 22.075C8.74703 22.1973 8.57703 22.2659 8.4 22.2667C8.2233 22.2643 8.05388 22.1959 7.925 22.075C7.79981 21.9486 7.72958 21.7779 7.72958 21.6C7.72958 21.4221 7.79981 21.2514 7.925 21.125L9.10833 19.95C9.23331 19.8253 9.40264 19.7553 9.57917 19.7553C9.7557 19.7553 9.92502 19.8253 10.05 19.95V19.95ZM15.6667 22.6667V24.3333C15.6667 24.5101 15.5964 24.6797 15.4714 24.8047C15.3464 24.9298 15.1768 25 15 25C14.8232 25 14.6536 24.9298 14.5286 24.8047C14.4036 24.6797 14.3333 24.5101 14.3333 24.3333V22.6667C14.3333 22.4899 14.4036 22.3203 14.5286 22.1953C14.6536 22.0702 14.8232 22 15 22C15.1768 22 15.3464 22.0702 15.4714 22.1953C15.5964 22.3203 15.6667 22.4899 15.6667 22.6667ZM22.075 21.125C22.2002 21.2514 22.2704 21.4221 22.2704 21.6C22.2704 21.7779 22.2002 21.9486 22.075 22.075C21.9461 22.1959 21.7767 22.2643 21.6 22.2667C21.423 22.2659 21.253 22.1973 21.125 22.075L19.95 20.8917C19.8351 20.7649 19.7734 20.5987 19.7776 20.4276C19.7818 20.2565 19.8516 20.0936 19.9726 19.9726C20.0936 19.8516 20.2565 19.7818 20.4276 19.7776C20.5987 19.7734 20.7649 19.8351 20.8917 19.95L22.075 21.125ZM25 15C25 15.1768 24.9298 15.3464 24.8047 15.4714C24.6797 15.5964 24.5101 15.6667 24.3333 15.6667H22.6667C22.4899 15.6667 22.3203 15.5964 22.1953 15.4714C22.0702 15.3464 22 15.1768 22 15C22 14.8232 22.0702 14.6536 22.1953 14.5286C22.3203 14.4036 22.4899 14.3333 22.6667 14.3333H24.3333C24.5101 14.3333 24.6797 14.4036 24.8047 14.5286C24.9298 14.6536 25 14.8232 25 15ZM19.95 10.05C19.8253 9.92502 19.7553 9.7557 19.7553 9.57917C19.7553 9.40264 19.8253 9.23331 19.95 9.10833L21.125 7.925C21.2545 7.81869 21.419 7.76436 21.5863 7.77258C21.7537 7.7808 21.912 7.85098 22.0305 7.96947C22.149 8.08796 22.2192 8.24629 22.2274 8.41366C22.2356 8.58103 22.1813 8.74547 22.075 8.875L20.8917 10.05C20.7656 10.1727 20.5967 10.2413 20.4208 10.2413C20.245 10.2413 20.076 10.1727 19.95 10.05V10.05Z" fill="white"/>
</svg>
