<svg width="34" height="33" viewBox="0 0 34 33" fill="none" xmlns="http://www.w3.org/2000/svg">
<circle cx="17" cy="16.5" r="16.5" fill="white"/>
<path d="M14.5052 24.566C14.3278 24.566 14.1614 24.5368 14.0061 24.4783C13.8509 24.4207 13.7067 24.3223 13.5736 24.183L7.8507 18.1934C7.6067 17.938 7.49002 17.6069 7.50067 17.2002C7.5122 16.7944 7.63997 16.4638 7.88397 16.2084C8.12797 15.9531 8.43851 15.8254 8.8156 15.8254C9.19269 15.8254 9.50323 15.9531 9.74723 16.2084L14.5052 21.1882L25.7846 9.38306C26.0286 9.12769 26.3449 9 26.7336 9C27.1213 9 27.4372 9.12769 27.6812 9.38306C27.9252 9.63843 28.0472 9.96902 28.0472 10.3748C28.0472 10.7816 27.9252 11.1126 27.6812 11.368L15.4369 24.183C15.3038 24.3223 15.1596 24.4207 15.0043 24.4783C14.849 24.5368 14.6827 24.566 14.5052 24.566Z" fill="black"/>
</svg>
