<svg width="27" height="27" viewBox="0 0 27 27" fill="none" xmlns="http://www.w3.org/2000/svg">
<path d="M26.5984 5.55403C25.6591 5.97028 24.6499 6.25153 23.5891 6.37865C24.6837 5.72367 25.5026 4.6928 25.8931 3.4784C24.8647 4.08927 23.7391 4.51925 22.5653 4.74965C21.776 3.90688 20.7305 3.34827 19.5912 3.16056C18.4519 2.97285 17.2824 3.16654 16.2645 3.71156C15.2465 4.25658 14.4369 5.12244 13.9615 6.1747C13.486 7.22695 13.3713 8.40675 13.6351 9.5309C11.5512 9.42627 9.51266 8.88465 7.65168 7.94117C5.7907 6.9977 4.1489 5.67346 2.83282 4.0544C2.38282 4.83065 2.12407 5.73065 2.12407 6.68915C2.12357 7.55202 2.33606 8.40168 2.74269 9.16273C3.14931 9.92378 3.73751 10.5727 4.45507 11.0519C3.62289 11.0254 2.80906 10.8006 2.08132 10.396V10.4635C2.08124 11.6737 2.49986 12.8467 3.26616 13.7834C4.03245 14.7201 5.09922 15.3628 6.28545 15.6025C5.51346 15.8115 4.70408 15.8422 3.91845 15.6925C4.25313 16.7338 4.90507 17.6444 5.78299 18.2968C6.66091 18.9492 7.72086 19.3107 8.81445 19.3308C6.95801 20.7881 4.66532 21.5786 2.3052 21.5752C1.88713 21.5753 1.46941 21.5509 1.0542 21.502C3.44986 23.0424 6.23858 23.8598 9.0867 23.8567C18.7279 23.8567 23.9986 15.8714 23.9986 8.9459C23.9986 8.7209 23.9929 8.49365 23.9828 8.26865C25.008 7.52725 25.893 6.60916 26.5962 5.5574L26.5984 5.55403V5.55403Z" fill="white"/>
</svg>
